<svg width="16" height="16" xmlns="http://www.w3.org/2000/svg">
  <rect width="16" height="16" fill="#24292f" rx="3"/>
  <path d="M8 3C5.8 3 4 4.8 4 7c0 1.8 1.2 3.3 2.8 3.8.2 0 .3-.1.3-.2v-.7c-1.1.2-1.3-.5-1.3-.5-.2-.5-.4-.6-.4-.6-.4-.2 0-.2 0-.2.4 0 .6.4.6.4.3.6.9.4 1.1.3 0-.2.1-.4.2-.5-.8-.1-1.7-.4-1.7-1.9 0-.4.1-.7.4-1 0-.1-.2-.5 0-1 0 0 .3-.1.9.4.3-.1.5-.1.8-.1s.6 0 .8.1c.6-.4.9-.4.9-.4.2.5 0 .9 0 1 .2.3.4.6.4 1 0 1.5-.9 1.8-1.7 1.9.1.1.2.3.2.6v.9c0 .1.1.2.3.2C10.8 10.3 12 8.8 12 7c0-2.2-1.8-4-4-4z" fill="#ffffff"/>
</svg>
